<svg width="727" height="1061" viewBox="0 0 727 1061" fill="none" xmlns="http://www.w3.org/2000/svg">
<path d="M710.01 1001.23C718.514 1030.64 696.44 1060 665.82 1060H61.1804C30.5596 1060 8.48632 1030.64 16.9896 1001.23L296.517 34.2261C302.205 14.5465 320.222 1 340.707 1H363.5H386.293C406.778 1 424.795 14.5463 430.483 34.2259L710.01 1001.23Z" fill="url(#paint0_linear_13_64)" style=""/>
<path d="M386.293 0.5C407.001 0.500129 425.213 14.1936 430.964 34.0869L710.491 1001.09C719.087 1030.82 696.773 1060.5 665.819 1060.5H61.1807C30.2271 1060.5 7.91309 1030.82 16.5088 1001.09L296.036 34.0869C301.787 14.1937 319.999 0.500158 340.707 0.5H386.293Z" stroke="#838383" stroke-opacity="0.5" style="stroke:#838383;stroke:color(display-p3 0.5144 0.5144 0.5144);stroke-opacity:0.5;"/>
<g opacity="0.2">
<path d="M665.119 977.918C669.104 993.13 657.628 1008 641.903 1008H86.0706C70.3537 1008 58.8786 993.144 62.849 977.937L308.793 35.9371C311.552 25.3715 321.095 18 332.015 18H363.045H395.129C406.042 18 415.58 25.3618 418.346 35.918L665.119 977.918Z" fill="url(#paint1_linear_13_64)" style=""/>
<path d="M332.015 20.5H395.129C404.905 20.5 413.45 27.0952 415.928 36.5518L662.701 978.552C666.271 992.179 655.99 1005.5 641.903 1005.5H86.0703C71.9907 1005.5 61.7108 992.191 65.2676 978.568L311.212 36.5684C313.683 27.1036 322.233 20.5002 332.015 20.5Z" stroke="#FFF5F5" stroke-opacity="0.5" style="stroke:#FFF5F5;stroke:color(display-p3 1.0000 0.9615 0.9615);stroke-opacity:0.5;" stroke-width="5"/>
</g>
<g opacity="0.15" filter="url(#filter0_d_13_64)">
<rect x="155" y="697" width="417" height="6" fill="white" fill-opacity="0.5" style="fill:white;fill-opacity:0.5;" shape-rendering="crispEdges"/>
</g>
<path d="M301.714 65H348M301.714 93H348M301.714 128H348M301.714 162H348M301.714 199H348M301.714 237H348M301.714 275H348M301.714 315H348M301.714 355H348M301.714 403H348M276 463H348M276 525H348M276 593H348M276 680H348M377.571 53H423.857M377.571 82H423.857M377.571 110H423.857M377.571 145H423.857M377.571 179H423.857M377.571 216H423.857M377.571 254H423.857M377.571 292H423.857M377.571 332H423.857M377.571 372H423.857M377.571 420H456M377.571 490H456M377.571 562H456M377.571 627H456M377.571 680H456M346.5 695.5V51M380.5 693.5V49" stroke="url(#paint2_linear_13_64)" stroke-opacity="0.4" style="" stroke-width="6"/>
<path opacity="0.5" d="M324.466 937.712C323.962 937.712 323.49 937.62 323.05 937.436C322.618 937.244 322.234 936.98 321.898 936.644C321.57 936.308 321.31 935.924 321.118 935.492C320.934 935.052 320.842 934.58 320.842 934.076C320.842 933.572 320.934 933.104 321.118 932.672C321.31 932.232 321.574 931.844 321.91 931.508C322.246 931.172 322.63 930.912 323.062 930.728C323.502 930.536 323.974 930.44 324.478 930.44C324.982 930.44 325.45 930.536 325.882 930.728C326.322 930.912 326.71 931.172 327.046 931.508C327.382 931.844 327.642 932.232 327.826 932.672C328.018 933.104 328.114 933.572 328.114 934.076C328.114 934.58 328.018 935.052 327.826 935.492C327.642 935.924 327.382 936.308 327.046 936.644C326.71 936.98 326.322 937.244 325.882 937.436C325.442 937.62 324.97 937.712 324.466 937.712ZM324.634 936.152C324.258 936.152 323.914 936.052 323.602 935.852C323.29 935.652 323.042 935.392 322.858 935.072C322.674 934.752 322.582 934.416 322.582 934.064C322.582 933.664 322.69 933.316 322.906 933.02C323.13 932.724 323.418 932.492 323.77 932.324C324.122 932.156 324.494 932.072 324.886 932.072C325.03 932.072 325.19 932.088 325.366 932.12C325.55 932.152 325.71 932.188 325.846 932.228C325.91 932.244 325.954 932.26 325.978 932.276C326.01 932.284 326.03 932.32 326.038 932.384C326.062 932.48 326.074 932.604 326.074 932.756C326.074 932.9 326.07 933.012 326.062 933.092C326.062 933.116 326.05 933.148 326.026 933.188C326.002 933.22 325.974 933.232 325.942 933.224C325.91 933.224 325.882 933.208 325.858 933.176C325.834 933.136 325.814 933.092 325.798 933.044C325.766 932.956 325.722 932.88 325.666 932.816C325.618 932.744 325.55 932.68 325.462 932.624C325.374 932.56 325.27 932.512 325.15 932.48C325.038 932.448 324.914 932.432 324.778 932.432C324.37 932.432 324.042 932.588 323.794 932.9C323.546 933.212 323.422 933.588 323.422 934.028C323.422 934.316 323.474 934.596 323.578 934.868C323.69 935.14 323.85 935.364 324.058 935.54C324.266 935.708 324.526 935.792 324.838 935.792C325.062 935.792 325.266 935.76 325.45 935.696C325.634 935.624 325.774 935.492 325.87 935.3C325.902 935.236 325.938 935.192 325.978 935.168C326.018 935.136 326.05 935.12 326.074 935.12C326.114 935.12 326.134 935.172 326.134 935.276C326.134 935.332 326.114 935.416 326.074 935.528C326.034 935.632 325.994 935.72 325.954 935.792C325.906 935.864 325.878 935.904 325.87 935.912C325.862 935.912 325.822 935.94 325.75 935.996C325.622 936.052 325.454 936.092 325.246 936.116C325.046 936.14 324.842 936.152 324.634 936.152ZM324.466 937.304C324.906 937.304 325.318 937.22 325.702 937.052C326.086 936.884 326.422 936.652 326.71 936.356C326.998 936.052 327.222 935.708 327.382 935.324C327.55 934.932 327.634 934.516 327.634 934.076C327.634 933.644 327.55 933.236 327.382 932.852C327.222 932.46 326.998 932.116 326.71 931.82C326.422 931.516 326.086 931.28 325.702 931.112C325.318 930.936 324.91 930.848 324.478 930.848C324.046 930.848 323.638 930.936 323.254 931.112C322.87 931.28 322.534 931.516 322.246 931.82C321.958 932.116 321.73 932.46 321.562 932.852C321.402 933.236 321.322 933.644 321.322 934.076C321.322 934.516 321.402 934.932 321.562 935.324C321.722 935.708 321.946 936.052 322.234 936.356C322.522 936.652 322.854 936.884 323.23 937.052C323.614 937.22 324.026 937.304 324.466 937.304ZM331.033 938.06C330.929 938.06 330.845 938.044 330.781 938.012C330.717 937.988 330.685 937.952 330.685 937.904C330.685 937.848 330.717 937.8 330.781 937.76C330.853 937.712 330.953 937.668 331.081 937.628C331.289 937.564 331.481 937.468 331.657 937.34C331.833 937.212 331.985 937 332.113 936.704C332.337 936.192 332.541 935.712 332.725 935.264C332.917 934.816 333.097 934.376 333.265 933.944C333.433 933.512 333.605 933.064 333.781 932.6C333.965 932.128 334.157 931.616 334.357 931.064C334.397 930.952 334.433 930.84 334.465 930.728C334.497 930.616 334.517 930.496 334.525 930.368C334.597 930.344 334.669 930.32 334.741 930.296C334.813 930.272 334.885 930.236 334.957 930.188C335.029 930.14 335.077 930.068 335.101 929.972C335.133 929.876 335.161 929.812 335.185 929.78C335.193 929.772 335.201 929.768 335.209 929.768C335.225 929.768 335.237 929.776 335.245 929.792C335.261 929.824 335.273 929.864 335.281 929.912C335.297 929.96 335.313 930.008 335.329 930.056C335.521 930.664 335.721 931.284 335.929 931.916C336.137 932.548 336.337 933.16 336.529 933.752C336.729 934.336 336.909 934.864 337.069 935.336C337.237 935.8 337.369 936.176 337.465 936.464C337.577 936.784 337.697 937.024 337.825 937.184C337.953 937.344 338.085 937.456 338.221 937.52C338.365 937.584 338.517 937.632 338.677 937.664C338.813 937.688 338.913 937.728 338.977 937.784C339.041 937.832 339.073 937.884 339.073 937.94C339.073 937.988 339.041 938.02 338.977 938.036C338.913 938.052 338.829 938.06 338.725 938.06C338.613 938.06 338.461 938.052 338.269 938.036C338.077 938.028 337.873 938.016 337.657 938C337.441 937.992 337.241 937.988 337.057 937.988C336.905 937.988 336.749 937.988 336.589 937.988C336.429 937.988 336.281 937.992 336.145 938C336.009 938 335.893 938 335.797 938C335.693 938 335.609 937.988 335.545 937.964C335.481 937.94 335.449 937.904 335.449 937.856C335.449 937.8 335.489 937.752 335.569 937.712C335.649 937.672 335.741 937.644 335.845 937.628C336.109 937.588 336.297 937.52 336.409 937.424C336.521 937.328 336.577 937.216 336.577 937.088C336.577 936.968 336.549 936.796 336.493 936.572C336.445 936.34 336.385 936.096 336.313 935.84C336.241 935.576 336.173 935.344 336.109 935.144C336.093 935.08 336.061 935.044 336.013 935.036C335.973 935.02 335.897 935.012 335.785 935.012H333.517C333.485 935.012 333.449 935.028 333.409 935.06C333.377 935.084 333.345 935.14 333.313 935.228C333.289 935.308 333.249 935.436 333.193 935.612C333.137 935.78 333.081 935.96 333.025 936.152C332.969 936.344 332.921 936.516 332.881 936.668C332.841 936.82 332.821 936.916 332.821 936.956C332.821 937.132 332.889 937.28 333.025 937.4C333.161 937.512 333.325 937.592 333.517 937.64C333.781 937.712 333.913 937.792 333.913 937.88C333.913 937.928 333.881 937.964 333.817 937.988C333.753 938.004 333.669 938.012 333.565 938.012C333.461 938.012 333.309 938.008 333.109 938C332.909 937.992 332.697 937.988 332.473 937.988C332.209 937.988 331.953 938 331.705 938.024C331.457 938.048 331.233 938.06 331.033 938.06ZM333.841 934.616H335.701C335.813 934.616 335.869 934.596 335.869 934.556C335.869 934.54 335.865 934.524 335.857 934.508C335.857 934.484 335.853 934.46 335.845 934.436L334.909 931.508C334.861 931.364 334.825 931.292 334.801 931.292C334.785 931.292 334.753 931.36 334.705 931.496L333.613 934.436C333.597 934.484 333.589 934.516 333.589 934.532C333.589 934.572 333.609 934.596 333.649 934.604C333.697 934.612 333.761 934.616 333.841 934.616ZM339.486 938.036C339.446 938.036 339.394 938.028 339.33 938.012C339.274 938.004 339.246 937.976 339.246 937.928C339.246 937.864 339.274 937.82 339.33 937.796C339.394 937.764 339.458 937.736 339.522 937.712C339.642 937.672 339.758 937.628 339.87 937.58C339.982 937.524 340.038 937.416 340.038 937.256V931.208C340.038 930.976 339.994 930.784 339.906 930.632C339.826 930.472 339.686 930.372 339.486 930.332C339.422 930.316 339.39 930.264 339.39 930.176C339.39 930.096 339.418 930.048 339.474 930.032C339.682 929.984 339.862 929.936 340.014 929.888C340.166 929.832 340.306 929.776 340.434 929.72C340.57 929.664 340.702 929.612 340.83 929.564C340.862 929.548 340.886 929.54 340.902 929.54C340.918 929.54 340.93 929.552 340.938 929.576C340.954 929.592 340.962 929.608 340.962 929.624C340.962 929.696 340.946 929.852 340.914 930.092C340.89 930.324 340.878 930.712 340.878 931.256V937.256C340.878 937.416 340.934 937.524 341.046 937.58C341.158 937.628 341.274 937.672 341.394 937.712C341.458 937.736 341.518 937.764 341.574 937.796C341.638 937.82 341.67 937.864 341.67 937.928C341.67 937.976 341.638 938.004 341.574 938.012C341.518 938.028 341.47 938.036 341.43 938.036C341.278 938.036 341.154 938.028 341.058 938.012C340.97 938.004 340.882 937.996 340.794 937.988C340.714 937.98 340.602 937.976 340.458 937.976C340.322 937.976 340.21 937.98 340.122 937.988C340.034 937.996 339.946 938.004 339.858 938.012C339.77 938.028 339.646 938.036 339.486 938.036ZM342.38 941.42C342.34 941.42 342.288 941.412 342.224 941.396C342.16 941.388 342.128 941.36 342.128 941.312C342.128 941.248 342.156 941.2 342.212 941.168C342.276 941.144 342.34 941.12 342.404 941.096C342.524 941.056 342.64 941.008 342.752 940.952C342.864 940.904 342.92 940.8 342.92 940.64V934.556C342.92 934.492 342.9 934.396 342.86 934.268C342.828 934.14 342.772 934.016 342.692 933.896C342.612 933.776 342.504 933.704 342.368 933.68C342.336 933.672 342.312 933.652 342.296 933.62C342.28 933.588 342.272 933.556 342.272 933.524C342.272 933.484 342.28 933.452 342.296 933.428C342.312 933.404 342.332 933.388 342.356 933.38C342.66 933.308 342.92 933.232 343.136 933.152C343.352 933.064 343.556 932.98 343.748 932.9C343.756 932.9 343.76 932.9 343.76 932.9C343.76 932.892 343.764 932.888 343.772 932.888C343.788 932.888 343.804 932.9 343.82 932.924C343.836 932.948 343.844 932.972 343.844 932.996C343.844 933.068 343.832 933.184 343.808 933.344C343.792 933.496 343.784 933.62 343.784 933.716C343.784 933.78 343.788 933.816 343.796 933.824C343.876 933.744 344.02 933.644 344.228 933.524C344.444 933.396 344.688 933.284 344.96 933.188C345.232 933.084 345.492 933.032 345.74 933.032C346.156 933.032 346.508 933.144 346.796 933.368C347.092 933.584 347.316 933.868 347.468 934.22C347.628 934.564 347.708 934.924 347.708 935.3C347.708 935.66 347.64 936.012 347.504 936.356C347.368 936.692 347.176 936.996 346.928 937.268C346.68 937.54 346.392 937.76 346.064 937.928C345.736 938.088 345.384 938.168 345.008 938.168C344.896 938.168 344.76 938.148 344.6 938.108C344.448 938.076 344.296 938.032 344.144 937.976C344 937.92 343.888 937.856 343.808 937.784C343.8 937.784 343.792 937.832 343.784 937.928C343.776 938.016 343.768 938.108 343.76 938.204C343.76 938.308 343.76 938.372 343.76 938.396V940.64C343.76 940.744 343.8 940.824 343.88 940.88C343.968 940.944 344.064 940.988 344.168 941.012C344.28 941.044 344.376 941.072 344.456 941.096C344.52 941.12 344.58 941.144 344.636 941.168C344.7 941.2 344.732 941.248 344.732 941.312C344.732 941.36 344.7 941.388 344.636 941.396C344.572 941.412 344.516 941.42 344.468 941.42C344.236 941.42 344.04 941.408 343.88 941.384C343.728 941.368 343.548 941.36 343.34 941.36C343.204 941.36 343.092 941.364 343.004 941.372C342.924 941.38 342.84 941.388 342.752 941.396C342.664 941.412 342.54 941.42 342.38 941.42ZM345.188 937.796C345.308 937.796 345.452 937.76 345.62 937.688C345.796 937.616 345.968 937.5 346.136 937.34C346.312 937.18 346.456 936.964 346.568 936.692C346.688 936.42 346.748 936.084 346.748 935.684C346.748 935.22 346.688 934.848 346.568 934.568C346.448 934.288 346.3 934.076 346.124 933.932C345.948 933.788 345.768 933.692 345.584 933.644C345.4 933.596 345.244 933.572 345.116 933.572C344.924 933.572 344.724 933.612 344.516 933.692C344.316 933.772 344.144 933.864 344 933.968C343.864 934.064 343.796 934.14 343.796 934.196C343.796 934.372 343.792 934.552 343.784 934.736C343.784 934.912 343.78 935.084 343.772 935.252C343.772 935.42 343.768 935.572 343.76 935.708C343.76 935.836 343.76 935.936 343.76 936.008C343.76 936.328 343.832 936.624 343.976 936.896C344.128 937.168 344.312 937.388 344.528 937.556C344.752 937.716 344.972 937.796 345.188 937.796ZM348.415 938.036C348.255 938.036 348.175 937.992 348.175 937.904C348.175 937.832 348.267 937.768 348.451 937.712C348.571 937.672 348.683 937.62 348.787 937.556C348.899 937.492 348.959 937.38 348.967 937.22V931.208C348.967 930.992 348.931 930.804 348.859 930.644C348.787 930.476 348.647 930.376 348.439 930.344C348.367 930.328 348.331 930.272 348.331 930.176C348.331 930.104 348.363 930.056 348.427 930.032C348.539 929.992 348.671 929.948 348.823 929.9C348.983 929.852 349.147 929.8 349.315 929.744C349.483 929.68 349.631 929.62 349.759 929.564C349.791 929.548 349.815 929.54 349.831 929.54C349.855 929.54 349.875 929.548 349.891 929.564C349.907 929.58 349.915 929.6 349.915 929.624C349.915 929.672 349.903 929.74 349.879 929.828C349.863 929.916 349.847 930.068 349.831 930.284C349.815 930.5 349.807 930.824 349.807 931.256V933.344C349.807 933.472 349.811 933.564 349.819 933.62C349.835 933.676 349.859 933.732 349.891 933.788C350.019 933.692 350.175 933.588 350.359 933.476C350.551 933.356 350.763 933.252 350.995 933.164C351.227 933.076 351.467 933.032 351.715 933.032C352.107 933.032 352.431 933.188 352.687 933.5C352.951 933.804 353.083 934.192 353.083 934.664V937.184C353.083 937.344 353.135 937.464 353.239 937.544C353.343 937.616 353.455 937.672 353.575 937.712C353.663 937.736 353.731 937.764 353.779 937.796C353.827 937.82 353.851 937.856 353.851 937.904C353.851 937.992 353.771 938.036 353.611 938.036C353.451 938.036 353.327 938.028 353.239 938.012C353.159 938.004 353.079 937.996 352.999 937.988C352.927 937.98 352.819 937.976 352.675 937.976C352.539 937.976 352.431 937.98 352.351 937.988C352.271 937.996 352.187 938.004 352.099 938.012C352.019 938.028 351.899 938.036 351.739 938.036C351.579 938.036 351.499 937.992 351.499 937.904C351.499 937.848 351.523 937.812 351.571 937.796C351.619 937.772 351.687 937.744 351.775 937.712C351.895 937.672 352.003 937.616 352.099 937.544C352.195 937.464 352.243 937.344 352.243 937.184V934.736C352.243 934.536 352.183 934.356 352.063 934.196C351.951 934.028 351.811 933.896 351.643 933.8C351.475 933.704 351.303 933.656 351.127 933.656C350.975 933.656 350.799 933.68 350.599 933.728C350.399 933.768 350.243 933.832 350.131 933.92C350.003 934.024 349.915 934.132 349.867 934.244C349.827 934.356 349.807 934.536 349.807 934.784V937.22C349.815 937.38 349.863 937.492 349.951 937.556C350.047 937.62 350.155 937.672 350.275 937.712C350.363 937.736 350.427 937.764 350.467 937.796C350.515 937.82 350.539 937.856 350.539 937.904C350.539 937.992 350.459 938.036 350.299 938.036C350.139 938.036 350.019 938.028 349.939 938.012C349.859 938.004 349.783 937.996 349.711 937.988C349.639 937.98 349.531 937.976 349.387 937.976C349.251 937.976 349.139 937.98 349.051 937.988C348.971 937.996 348.883 938.004 348.787 938.012C348.699 938.028 348.575 938.036 348.415 938.036ZM355.527 938.168C355.383 938.168 355.235 938.112 355.083 938C354.939 937.888 354.815 937.752 354.711 937.592C354.615 937.432 354.567 937.28 354.567 937.136C354.567 936.88 354.635 936.68 354.771 936.536C354.907 936.392 355.123 936.26 355.419 936.14L356.643 935.636C356.803 935.572 356.895 935.516 356.919 935.468C356.951 935.42 356.971 935.316 356.979 935.156L357.003 934.388C357.011 934.18 356.951 934 356.823 933.848C356.703 933.696 356.527 933.62 356.295 933.62C356.175 933.62 356.055 933.64 355.935 933.68C355.815 933.72 355.715 933.772 355.635 933.836C355.587 933.868 355.555 933.916 355.539 933.98C355.523 934.044 355.515 934.112 355.515 934.184C355.515 934.216 355.515 934.252 355.515 934.292C355.523 934.332 355.527 934.368 355.527 934.4C355.527 934.44 355.475 934.496 355.371 934.568C355.275 934.632 355.163 934.692 355.035 934.748C354.915 934.796 354.815 934.82 354.735 934.82C354.695 934.82 354.663 934.812 354.639 934.796C354.615 934.772 354.603 934.744 354.603 934.712C354.603 934.584 354.643 934.448 354.723 934.304C354.811 934.152 354.931 934.012 355.083 933.884C355.267 933.716 355.467 933.568 355.683 933.44C355.899 933.312 356.111 933.212 356.319 933.14C356.527 933.068 356.711 933.032 356.871 933.032C357.159 933.032 357.395 933.136 357.579 933.344C357.771 933.544 357.863 933.796 357.855 934.1L357.795 936.98C357.787 937.148 357.823 937.284 357.903 937.388C357.991 937.492 358.099 937.544 358.227 937.544C358.427 937.544 358.575 937.5 358.671 937.412C358.711 937.372 358.743 937.352 358.767 937.352C358.807 937.352 358.839 937.364 358.863 937.388C358.887 937.412 358.899 937.444 358.899 937.484C358.899 937.572 358.855 937.66 358.767 937.748C358.639 937.876 358.499 937.976 358.347 938.048C358.203 938.128 358.067 938.168 357.939 938.168C357.571 938.168 357.279 937.96 357.063 937.544H357.027C356.763 937.76 356.511 937.916 356.271 938.012C356.031 938.116 355.783 938.168 355.527 938.168ZM356.091 937.592C356.251 937.592 356.387 937.568 356.499 937.52C356.611 937.464 356.711 937.392 356.799 937.304C356.839 937.264 356.871 937.212 356.895 937.148C356.927 937.076 356.947 936.964 356.955 936.812L356.979 936.224C356.987 936.136 356.983 936.072 356.967 936.032C356.951 935.992 356.919 935.972 356.871 935.972C356.855 935.972 356.827 935.976 356.787 935.984C356.747 935.992 356.695 936.008 356.631 936.032C356.207 936.184 355.911 936.344 355.743 936.512C355.583 936.672 355.503 936.82 355.503 936.956C355.503 937.164 355.563 937.324 355.683 937.436C355.811 937.54 355.947 937.592 356.091 937.592ZM359.492 938.06C359.388 938.06 359.304 938.048 359.24 938.024C359.176 938.008 359.144 937.976 359.144 937.928C359.144 937.832 359.276 937.76 359.54 937.712C359.844 937.656 360.076 937.564 360.236 937.436C360.396 937.308 360.476 937.1 360.476 936.812V931.412C360.476 931.124 360.416 930.912 360.296 930.776C360.176 930.64 359.968 930.56 359.672 930.536C359.536 930.52 359.436 930.492 359.372 930.452C359.308 930.404 359.276 930.352 359.276 930.296C359.276 930.248 359.308 930.216 359.372 930.2C359.436 930.176 359.52 930.164 359.624 930.164C359.84 930.164 360.008 930.164 360.128 930.164C360.248 930.164 360.36 930.168 360.464 930.176C360.576 930.176 360.712 930.176 360.872 930.176C361.024 930.176 361.156 930.172 361.268 930.164C361.38 930.148 361.504 930.136 361.64 930.128C361.784 930.12 361.972 930.116 362.204 930.116C363.14 930.116 363.836 930.252 364.292 930.524C364.756 930.788 364.988 931.248 364.988 931.904C364.988 932.176 364.94 932.416 364.844 932.624C364.756 932.824 364.668 932.968 364.58 933.056C364.452 933.184 364.336 933.284 364.232 933.356C364.128 933.42 363.976 933.492 363.776 933.572C363.744 933.58 363.728 933.6 363.728 933.632C363.728 933.656 363.744 933.676 363.776 933.692C363.96 933.748 364.148 933.82 364.34 933.908C364.54 933.996 364.724 934.112 364.892 934.256C365.068 934.392 365.208 934.576 365.312 934.808C365.424 935.032 365.48 935.32 365.48 935.672C365.48 936.112 365.408 936.46 365.264 936.716C365.128 936.972 364.964 937.168 364.772 937.304C364.58 937.44 364.4 937.552 364.232 937.64C363.984 937.768 363.696 937.868 363.368 937.94C363.04 938.012 362.648 938.048 362.192 938.048C362.088 938.048 361.932 938.04 361.724 938.024C361.516 938.008 361.292 938 361.052 938C360.844 938 360.668 938.004 360.524 938.012C360.38 938.02 360.228 938.028 360.068 938.036C359.916 938.052 359.724 938.06 359.492 938.06ZM362.36 937.556C362.712 937.556 363.04 937.476 363.344 937.316C363.648 937.156 363.892 936.94 364.076 936.668C364.26 936.388 364.352 936.076 364.352 935.732C364.352 935.42 364.3 935.164 364.196 934.964C364.092 934.756 363.972 934.588 363.836 934.46C363.7 934.332 363.576 934.24 363.464 934.184C363.36 934.12 363.196 934.056 362.972 933.992C362.748 933.92 362.456 933.884 362.096 933.884C361.84 933.884 361.66 933.936 361.556 934.04C361.46 934.144 361.412 934.236 361.412 934.316V936.704C361.412 937.04 361.492 937.268 361.652 937.388C361.82 937.5 362.056 937.556 362.36 937.556ZM361.964 933.548C362.18 933.548 362.412 933.524 362.66 933.476C362.916 933.428 363.168 933.336 363.416 933.2C363.504 933.152 363.616 933.036 363.752 932.852C363.888 932.668 363.956 932.404 363.956 932.06C363.956 931.828 363.912 931.592 363.824 931.352C363.736 931.104 363.568 930.896 363.32 930.728C363.072 930.56 362.7 930.476 362.204 930.476C361.876 930.476 361.66 930.52 361.556 930.608C361.46 930.696 361.412 930.832 361.412 931.016V933.104C361.412 933.312 361.48 933.44 361.616 933.488C361.752 933.528 361.868 933.548 361.964 933.548ZM366.547 938.036C366.467 938.036 366.407 938.024 366.367 938C366.327 937.984 366.307 937.952 366.307 937.904C366.307 937.84 366.331 937.8 366.379 937.784C366.427 937.76 366.495 937.736 366.583 937.712C366.735 937.672 366.847 937.616 366.919 937.544C366.999 937.464 367.039 937.368 367.039 937.256V934.676C367.039 934.46 367.007 934.272 366.943 934.112C366.879 933.952 366.747 933.852 366.547 933.812C366.515 933.804 366.487 933.784 366.463 933.752C366.439 933.72 366.427 933.688 366.427 933.656C366.427 933.576 366.463 933.528 366.535 933.512C366.743 933.448 366.959 933.356 367.183 933.236C367.415 933.108 367.595 933.004 367.723 932.924C367.771 932.892 367.807 932.872 367.831 932.864C367.863 932.848 367.887 932.84 367.903 932.84C367.943 932.84 367.963 932.868 367.963 932.924C367.963 932.948 367.959 933.008 367.951 933.104C367.951 933.2 367.947 933.312 367.939 933.44C367.939 933.568 367.935 933.696 367.927 933.824C367.927 933.84 367.935 933.848 367.951 933.848C368.079 933.688 368.219 933.548 368.371 933.428C368.531 933.308 368.691 933.212 368.851 933.14C369.019 933.068 369.179 933.032 369.331 933.032C369.499 933.032 369.635 933.068 369.739 933.14C369.851 933.212 369.907 933.304 369.907 933.416C369.907 933.496 369.883 933.584 369.835 933.68C369.795 933.776 369.739 933.86 369.667 933.932C369.595 934.004 369.519 934.04 369.439 934.04C369.391 934.04 369.339 934.032 369.283 934.016C369.227 933.992 369.167 933.964 369.103 933.932C369.039 933.908 368.975 933.884 368.911 933.86C368.847 933.836 368.783 933.824 368.719 933.824C368.527 933.824 368.339 933.892 368.155 934.028C367.979 934.164 367.891 934.432 367.891 934.832V937.256C367.891 937.36 367.947 937.448 368.059 937.52C368.171 937.584 368.327 937.648 368.527 937.712C368.615 937.736 368.683 937.76 368.731 937.784C368.779 937.808 368.803 937.848 368.803 937.904C368.803 937.992 368.723 938.036 368.563 938.036C368.323 938.036 368.139 938.024 368.011 938C367.891 937.984 367.727 937.976 367.519 937.976C367.383 937.976 367.271 937.98 367.183 937.988C367.103 937.996 367.015 938.004 366.919 938.012C366.831 938.028 366.707 938.036 366.547 938.036ZM371.371 938.168C371.227 938.168 371.079 938.112 370.927 938C370.783 937.888 370.659 937.752 370.555 937.592C370.459 937.432 370.411 937.28 370.411 937.136C370.411 936.88 370.479 936.68 370.615 936.536C370.751 936.392 370.967 936.26 371.263 936.14L372.487 935.636C372.647 935.572 372.739 935.516 372.763 935.468C372.795 935.42 372.815 935.316 372.823 935.156L372.847 934.388C372.855 934.18 372.795 934 372.667 933.848C372.547 933.696 372.371 933.62 372.139 933.62C372.019 933.62 371.899 933.64 371.779 933.68C371.659 933.72 371.559 933.772 371.479 933.836C371.431 933.868 371.399 933.916 371.383 933.98C371.367 934.044 371.359 934.112 371.359 934.184C371.359 934.216 371.359 934.252 371.359 934.292C371.367 934.332 371.371 934.368 371.371 934.4C371.371 934.44 371.319 934.496 371.215 934.568C371.119 934.632 371.007 934.692 370.879 934.748C370.759 934.796 370.659 934.82 370.579 934.82C370.539 934.82 370.507 934.812 370.483 934.796C370.459 934.772 370.447 934.744 370.447 934.712C370.447 934.584 370.487 934.448 370.567 934.304C370.655 934.152 370.775 934.012 370.927 933.884C371.111 933.716 371.311 933.568 371.527 933.44C371.743 933.312 371.955 933.212 372.163 933.14C372.371 933.068 372.555 933.032 372.715 933.032C373.003 933.032 373.239 933.136 373.423 933.344C373.615 933.544 373.707 933.796 373.699 934.1L373.639 936.98C373.631 937.148 373.667 937.284 373.747 937.388C373.835 937.492 373.943 937.544 374.071 937.544C374.271 937.544 374.419 937.5 374.515 937.412C374.555 937.372 374.587 937.352 374.611 937.352C374.651 937.352 374.683 937.364 374.707 937.388C374.731 937.412 374.743 937.444 374.743 937.484C374.743 937.572 374.699 937.66 374.611 937.748C374.483 937.876 374.343 937.976 374.191 938.048C374.047 938.128 373.911 938.168 373.783 938.168C373.415 938.168 373.123 937.96 372.907 937.544H372.871C372.607 937.76 372.355 937.916 372.115 938.012C371.875 938.116 371.627 938.168 371.371 938.168ZM371.935 937.592C372.095 937.592 372.231 937.568 372.343 937.52C372.455 937.464 372.555 937.392 372.643 937.304C372.683 937.264 372.715 937.212 372.739 937.148C372.771 937.076 372.791 936.964 372.799 936.812L372.823 936.224C372.831 936.136 372.827 936.072 372.811 936.032C372.795 935.992 372.763 935.972 372.715 935.972C372.699 935.972 372.671 935.976 372.631 935.984C372.591 935.992 372.539 936.008 372.475 936.032C372.051 936.184 371.755 936.344 371.587 936.512C371.427 936.672 371.347 936.82 371.347 936.956C371.347 937.164 371.407 937.324 371.527 937.436C371.655 937.54 371.791 937.592 371.935 937.592ZM377.028 938.168C376.636 938.168 376.328 938.048 376.104 937.808C375.888 937.568 375.78 937.212 375.78 936.74V933.956C375.78 933.892 375.756 933.848 375.708 933.824C375.66 933.792 375.556 933.776 375.396 933.776H375.324C375.284 933.776 375.248 933.752 375.216 933.704C375.192 933.648 375.18 933.592 375.18 933.536C375.18 933.52 375.192 933.496 375.216 933.464C375.24 933.432 375.256 933.412 375.264 933.404C375.424 933.292 375.568 933.18 375.696 933.068C375.832 932.956 375.952 932.848 376.056 932.744C376.168 932.632 376.26 932.532 376.332 932.444C376.372 932.404 376.404 932.372 376.428 932.348C376.46 932.316 376.496 932.3 376.536 932.3C376.576 932.3 376.612 932.308 376.644 932.324C376.684 932.34 376.7 932.376 376.692 932.432L376.632 932.972C376.624 933.06 376.644 933.12 376.692 933.152C376.74 933.184 376.816 933.2 376.92 933.2H378.288C378.32 933.2 378.348 933.228 378.372 933.284C378.396 933.332 378.408 933.392 378.408 933.464C378.408 933.536 378.396 933.608 378.372 933.68C378.348 933.744 378.32 933.776 378.288 933.776H377.1C376.9 933.776 376.768 933.792 376.704 933.824C376.648 933.856 376.62 933.952 376.62 934.112V936.476C376.62 936.796 376.688 937.048 376.824 937.232C376.96 937.416 377.156 937.508 377.412 937.508C377.644 937.508 377.824 937.492 377.952 937.46C378.08 937.42 378.196 937.364 378.3 937.292C378.316 937.276 378.332 937.268 378.348 937.268C378.38 937.268 378.4 937.288 378.408 937.328C378.424 937.36 378.432 937.396 378.432 937.436C378.432 937.476 378.364 937.556 378.228 937.676C378.1 937.796 377.928 937.908 377.712 938.012C377.504 938.116 377.276 938.168 377.028 938.168ZM381.089 938.18C380.649 938.18 380.265 938.072 379.937 937.856C379.609 937.64 379.353 937.336 379.169 936.944C378.985 936.544 378.893 936.084 378.893 935.564C378.893 935.1 378.997 934.68 379.205 934.304C379.421 933.92 379.705 933.612 380.057 933.38C380.409 933.148 380.793 933.032 381.209 933.032C381.529 933.032 381.813 933.096 382.061 933.224C382.309 933.352 382.501 933.532 382.637 933.764C382.781 933.988 382.853 934.248 382.853 934.544C382.853 934.792 382.733 934.916 382.493 934.916H379.961C379.849 934.916 379.769 934.948 379.721 935.012C379.681 935.068 379.661 935.184 379.661 935.36C379.661 935.744 379.745 936.096 379.913 936.416C380.081 936.728 380.305 936.98 380.585 937.172C380.865 937.356 381.173 937.448 381.509 937.448C381.749 937.448 381.965 937.404 382.157 937.316C382.357 937.22 382.533 937.084 382.685 936.908C382.717 936.868 382.741 936.844 382.757 936.836C382.773 936.82 382.793 936.812 382.817 936.812C382.881 936.812 382.913 936.852 382.913 936.932C382.913 937.084 382.841 937.252 382.697 937.436C382.577 937.588 382.433 937.72 382.265 937.832C382.097 937.944 381.913 938.028 381.713 938.084C381.513 938.148 381.305 938.18 381.089 938.18ZM379.985 934.544H381.077C381.269 934.544 381.433 934.54 381.569 934.532C381.705 934.524 381.837 934.508 381.965 934.484C382.005 934.476 382.029 934.452 382.037 934.412C382.053 934.364 382.061 934.3 382.061 934.22C382.061 933.988 381.957 933.792 381.749 933.632C381.549 933.464 381.309 933.38 381.029 933.38C380.845 933.38 380.661 933.436 380.477 933.548C380.293 933.652 380.141 933.784 380.021 933.944C379.901 934.104 379.841 934.264 379.841 934.424C379.841 934.504 379.889 934.544 379.985 934.544ZM390.639 938.036C390.583 938.036 390.495 938.032 390.375 938.024C390.255 938.016 390.119 938.008 389.967 938C389.815 937.992 389.655 937.984 389.487 937.976C389.327 937.968 389.171 937.964 389.019 937.964C388.867 937.964 388.651 937.968 388.371 937.976C388.091 937.984 387.795 937.992 387.483 938C387.179 938 386.911 938.004 386.679 938.012C386.447 938.02 386.299 938.024 386.235 938.024C386.203 938.024 386.155 938 386.091 937.952C386.027 937.896 385.995 937.852 385.995 937.82C385.995 937.78 386.003 937.752 386.019 937.736C386.035 937.72 386.059 937.696 386.091 937.664L388.143 935.54C388.543 935.124 388.875 934.66 389.139 934.148C389.403 933.628 389.535 933.104 389.535 932.576C389.535 932.152 389.407 931.82 389.151 931.58C388.895 931.332 388.595 931.208 388.251 931.208C387.923 931.208 387.619 931.3 387.339 931.484C387.059 931.66 386.835 931.892 386.667 932.18C386.643 932.228 386.611 932.268 386.571 932.3C386.539 932.332 386.503 932.348 386.463 932.348C386.431 932.348 386.391 932.316 386.343 932.252C386.303 932.18 386.283 932.092 386.283 931.988C386.283 931.892 386.339 931.76 386.451 931.592C386.571 931.424 386.735 931.252 386.943 931.076C387.151 930.9 387.399 930.752 387.687 930.632C387.975 930.504 388.287 930.44 388.623 930.44C389.023 930.44 389.367 930.524 389.655 930.692C389.943 930.86 390.163 931.092 390.315 931.388C390.467 931.684 390.543 932.028 390.543 932.42C390.543 932.636 390.503 932.868 390.423 933.116C390.351 933.364 390.247 933.608 390.111 933.848C389.983 934.088 389.835 934.312 389.667 934.52C389.563 934.648 389.407 934.82 389.199 935.036C388.999 935.244 388.779 935.468 388.539 935.708C388.307 935.948 388.083 936.176 387.867 936.392C387.659 936.6 387.487 936.776 387.351 936.92C387.215 937.056 387.147 937.132 387.147 937.148C387.147 937.188 387.203 937.216 387.315 937.232C387.451 937.24 387.603 937.248 387.771 937.256C387.947 937.264 388.147 937.268 388.371 937.268C388.603 937.268 388.835 937.264 389.067 937.256C389.299 937.248 389.523 937.24 389.739 937.232C389.971 937.216 390.151 937.196 390.279 937.172C390.407 937.148 390.515 937.1 390.603 937.028C390.691 936.948 390.783 936.828 390.879 936.668C390.911 936.62 390.951 936.564 390.999 936.5C391.055 936.428 391.115 936.392 391.179 936.392C391.219 936.392 391.243 936.408 391.251 936.44C391.259 936.472 391.263 936.504 391.263 936.536C391.263 936.576 391.239 936.656 391.191 936.776C391.151 936.888 391.103 937.028 391.047 937.196C390.991 937.364 390.943 937.548 390.903 937.748C390.879 937.876 390.839 937.956 390.783 937.988C390.727 938.02 390.679 938.036 390.639 938.036ZM394.317 938.168C393.909 938.168 393.553 938.056 393.249 937.832C392.953 937.608 392.705 937.312 392.505 936.944C392.305 936.568 392.157 936.156 392.061 935.708C391.965 935.26 391.917 934.816 391.917 934.376C391.917 933.92 391.965 933.46 392.061 932.996C392.157 932.532 392.305 932.108 392.505 931.724C392.713 931.34 392.977 931.032 393.297 930.8C393.617 930.56 393.997 930.44 394.437 930.44C394.845 930.44 395.197 930.552 395.493 930.776C395.797 931 396.049 931.3 396.249 931.676C396.449 932.044 396.597 932.452 396.693 932.9C396.789 933.34 396.837 933.776 396.837 934.208C396.837 934.656 396.789 935.112 396.693 935.576C396.597 936.04 396.445 936.468 396.237 936.86C396.037 937.252 395.777 937.568 395.457 937.808C395.145 938.048 394.765 938.168 394.317 938.168ZM394.521 937.856C394.841 937.856 395.097 937.696 395.289 937.376C395.489 937.048 395.633 936.624 395.721 936.104C395.809 935.584 395.853 935.024 395.853 934.424C395.853 933.976 395.817 933.536 395.745 933.104C395.681 932.672 395.577 932.28 395.433 931.928C395.297 931.576 395.125 931.296 394.917 931.088C394.717 930.88 394.481 930.776 394.209 930.776C393.889 930.776 393.633 930.932 393.441 931.244C393.257 931.556 393.121 931.972 393.033 932.492C392.953 933.004 392.913 933.56 392.913 934.16C392.913 934.608 392.945 935.052 393.009 935.492C393.081 935.932 393.181 936.332 393.309 936.692C393.445 937.044 393.613 937.328 393.813 937.544C394.013 937.752 394.249 937.856 394.521 937.856ZM402.171 938.036C402.115 938.036 402.027 938.032 401.907 938.024C401.787 938.016 401.651 938.008 401.499 938C401.347 937.992 401.187 937.984 401.019 937.976C400.859 937.968 400.703 937.964 400.551 937.964C400.399 937.964 400.183 937.968 399.903 937.976C399.623 937.984 399.327 937.992 399.015 938C398.711 938 398.443 938.004 398.211 938.012C397.979 938.02 397.831 938.024 397.767 938.024C397.735 938.024 397.687 938 397.623 937.952C397.559 937.896 397.527 937.852 397.527 937.82C397.527 937.78 397.535 937.752 397.551 937.736C397.567 937.72 397.591 937.696 397.623 937.664L399.675 935.54C400.075 935.124 400.407 934.66 400.671 934.148C400.935 933.628 401.067 933.104 401.067 932.576C401.067 932.152 400.939 931.82 400.683 931.58C400.427 931.332 400.127 931.208 399.783 931.208C399.455 931.208 399.151 931.3 398.871 931.484C398.591 931.66 398.367 931.892 398.199 932.18C398.175 932.228 398.143 932.268 398.103 932.3C398.071 932.332 398.035 932.348 397.995 932.348C397.963 932.348 397.923 932.316 397.875 932.252C397.835 932.18 397.815 932.092 397.815 931.988C397.815 931.892 397.871 931.76 397.983 931.592C398.103 931.424 398.267 931.252 398.475 931.076C398.683 930.9 398.931 930.752 399.219 930.632C399.507 930.504 399.819 930.44 400.155 930.44C400.555 930.44 400.899 930.524 401.187 930.692C401.475 930.86 401.695 931.092 401.847 931.388C401.999 931.684 402.075 932.028 402.075 932.42C402.075 932.636 402.035 932.868 401.955 933.116C401.883 933.364 401.779 933.608 401.643 933.848C401.515 934.088 401.367 934.312 401.199 934.52C401.095 934.648 400.939 934.82 400.731 935.036C400.531 935.244 400.311 935.468 400.071 935.708C399.839 935.948 399.615 936.176 399.399 936.392C399.191 936.6 399.019 936.776 398.883 936.92C398.747 937.056 398.679 937.132 398.679 937.148C398.679 937.188 398.735 937.216 398.847 937.232C398.983 937.24 399.135 937.248 399.303 937.256C399.479 937.264 399.679 937.268 399.903 937.268C400.135 937.268 400.367 937.264 400.599 937.256C400.831 937.248 401.055 937.24 401.271 937.232C401.503 937.216 401.683 937.196 401.811 937.172C401.939 937.148 402.047 937.1 402.135 937.028C402.223 936.948 402.315 936.828 402.411 936.668C402.443 936.62 402.483 936.564 402.531 936.5C402.587 936.428 402.647 936.392 402.711 936.392C402.751 936.392 402.775 936.408 402.783 936.44C402.791 936.472 402.795 936.504 402.795 936.536C402.795 936.576 402.771 936.656 402.723 936.776C402.683 936.888 402.635 937.028 402.579 937.196C402.523 937.364 402.475 937.548 402.435 937.748C402.411 937.876 402.371 937.956 402.315 937.988C402.259 938.02 402.211 938.036 402.171 938.036ZM404.216 938.456C404.128 938.456 404.032 938.444 403.928 938.42C403.824 938.404 403.772 938.368 403.772 938.312C403.772 938.248 403.824 938.192 403.928 938.144C404.04 938.104 404.132 938.084 404.204 938.084C404.836 938.084 405.356 937.972 405.764 937.748C406.18 937.516 406.488 937.228 406.688 936.884C406.896 936.54 407 936.196 407 935.852C407 935.54 406.908 935.264 406.724 935.024C406.54 934.784 406.236 934.564 405.812 934.364C405.396 934.164 404.832 933.972 404.12 933.788C404.016 933.7 403.94 933.612 403.892 933.524C403.852 933.436 403.832 933.34 403.832 933.236C403.832 933.124 403.852 932.988 403.892 932.828C403.94 932.668 403.996 932.5 404.06 932.324C404.124 932.14 404.188 931.96 404.252 931.784C404.316 931.608 404.368 931.456 404.408 931.328C404.448 931.208 404.508 931.116 404.588 931.052C404.668 930.98 404.772 930.928 404.9 930.896C405.084 930.848 405.272 930.804 405.464 930.764C405.656 930.724 405.856 930.688 406.064 930.656C406.272 930.616 406.484 930.584 406.7 930.56C406.924 930.528 407.152 930.5 407.384 930.476C407.448 930.468 407.492 930.488 407.516 930.536C407.548 930.576 407.548 930.624 407.516 930.68C407.484 930.744 407.448 930.812 407.408 930.884C407.376 930.948 407.344 931.012 407.312 931.076C407.256 931.196 407.192 931.288 407.12 931.352C407.056 931.408 406.972 931.444 406.868 931.46C406.716 931.476 406.54 931.496 406.34 931.52C406.14 931.536 405.94 931.556 405.74 931.58C405.54 931.596 405.356 931.612 405.188 931.628C405.02 931.644 404.892 931.66 404.804 931.676C404.748 931.684 404.68 931.756 404.6 931.892C404.52 932.02 404.448 932.16 404.384 932.312C404.32 932.456 404.284 932.56 404.276 932.624C404.268 932.68 404.272 932.728 404.288 932.768C404.312 932.808 404.36 932.836 404.432 932.852C404.88 932.98 405.288 933.112 405.656 933.248C406.024 933.376 406.344 933.512 406.616 933.656C407.064 933.888 407.396 934.164 407.612 934.484C407.836 934.796 407.948 935.196 407.948 935.684C407.948 936.124 407.816 936.536 407.552 936.92C407.288 937.304 406.932 937.624 406.484 937.88C406.268 938 406.04 938.1 405.8 938.18C405.56 938.268 405.308 938.336 405.044 938.384C404.78 938.432 404.504 938.456 404.216 938.456Z" fill="white" style="fill:white;fill-opacity:1;"/>
<defs>
<filter id="filter0_d_13_64" x="118.2" y="660.2" width="490.6" height="79.6" filterUnits="userSpaceOnUse" color-interpolation-filters="sRGB">
<feFlood flood-opacity="0" result="BackgroundImageFix"/>
<feColorMatrix in="SourceAlpha" type="matrix" values="0 0 0 0 0 0 0 0 0 0 0 0 0 0 0 0 0 0 127 0" result="hardAlpha"/>
<feMorphology radius="13" operator="dilate" in="SourceAlpha" result="effect1_dropShadow_13_64"/>
<feOffset/>
<feGaussianBlur stdDeviation="11.9"/>
<feComposite in2="hardAlpha" operator="out"/>
<feColorMatrix type="matrix" values="0 0 0 0 1 0 0 0 0 1 0 0 0 0 1 0 0 0 0.25 0"/>
<feBlend mode="normal" in2="BackgroundImageFix" result="effect1_dropShadow_13_64"/>
<feBlend mode="normal" in="SourceGraphic" in2="effect1_dropShadow_13_64" result="shape"/>
</filter>
<linearGradient id="paint0_linear_13_64" x1="363.5" y1="1" x2="363.5" y2="1060" gradientUnits="userSpaceOnUse">
<stop stop-color="#2D2D2D" style="stop-color:#2D2D2D;stop-color:color(display-p3 0.1779 0.1779 0.1779);stop-opacity:1;"/>
<stop offset="0.665767" stop-color="#1A1A1A" style="stop-color:#1A1A1A;stop-color:color(display-p3 0.1010 0.1010 0.1010);stop-opacity:1;"/>
<stop offset="1" stop-color="#242424" style="stop-color:#242424;stop-color:color(display-p3 0.1394 0.1394 0.1394);stop-opacity:1;"/>
</linearGradient>
<linearGradient id="paint1_linear_13_64" x1="364" y1="18" x2="364" y2="1008" gradientUnits="userSpaceOnUse">
<stop stop-color="#2D2D2D" style="stop-color:#2D2D2D;stop-color:color(display-p3 0.1779 0.1779 0.1779);stop-opacity:1;"/>
<stop offset="0.632107" stop-color="#353535" style="stop-color:#353535;stop-color:color(display-p3 0.2067 0.2067 0.2067);stop-opacity:1;"/>
<stop offset="0.792463" stop-color="#606060" style="stop-color:#606060;stop-color:color(display-p3 0.3750 0.3750 0.3750);stop-opacity:1;"/>
</linearGradient>
<linearGradient id="paint2_linear_13_64" x1="123" y1="80.5" x2="588.102" y2="473.144" gradientUnits="userSpaceOnUse">
<stop offset="0.00472025" stop-color="#FFD700" style="stop-color:#FFD700;stop-color:color(display-p3 1.0000 0.8431 0.0000);stop-opacity:1;"/>
<stop offset="0.552885" stop-color="#C4BB89" style="stop-color:#C4BB89;stop-color:color(display-p3 0.7692 0.7327 0.5362);stop-opacity:1;"/>
<stop offset="0.774038" stop-color="#76671B" style="stop-color:#76671B;stop-color:color(display-p3 0.4615 0.4055 0.1043);stop-opacity:1;"/>
<stop offset="1" stop-color="#CDB326" style="stop-color:#CDB326;stop-color:color(display-p3 0.8029 0.7006 0.1505);stop-opacity:1;"/>
</linearGradient>
</defs>
</svg>
