<svg width="24" height="26" viewBox="0 0 24 26" fill="none" xmlns="http://www.w3.org/2000/svg">
<path d="M2.09732 15.3922C1.87769 13.8295 2.03104 12.2369 2.54482 10.7448C3.0586 9.25268 3.91822 7.90333 5.05342 6.80709M15.2872 9.39323L18.2205 9.14882C19.3172 9.05744 20.3843 9.57087 20.8714 10.5577C21.3475 11.5223 21.867 12.8018 22.0002 14.0003C22.5 18.5005 16.5 24.5005 10 18.5005C8.73933 17.3367 6.74929 15.294 5.90276 14.4183C5.63854 14.1449 5.43499 13.8004 5.44564 13.4204C5.49863 11.5309 8.11393 11.6249 9.9431 12.9584C9.98113 12.9861 10.0212 13.0111 10.0633 13.0321C10.7193 13.36 11.4263 12.6883 11.1323 12.0164L8.56746 6.15423C8.52268 6.05189 8.48436 5.94585 8.4653 5.83577C8.1382 3.94694 10.528 3.05609 11.5002 5.00017L13.3728 8.37132C13.7546 9.05866 14.5037 9.45852 15.2872 9.39323Z" stroke="#1F1F1F" stroke-width="1.5" stroke-linecap="round"/>
</svg>
