<svg width="24" height="26" viewBox="0 0 24 26" fill="none" xmlns="http://www.w3.org/2000/svg">
<path d="M13.9881 4.56946C14.3026 4.29989 14.339 3.82641 14.0694 3.51192C13.7999 3.19743 13.3264 3.161 13.0119 3.43057L9.51191 6.43057C9.35329 6.56653 9.25857 6.76248 9.25055 6.97123C9.24254 7.17999 9.32195 7.38262 9.46967 7.53034L12.9697 11.0303C13.2626 11.3232 13.7374 11.3232 14.0303 11.0303C14.3232 10.7375 14.3232 10.2626 14.0303 9.96968L11.8134 7.75279C12.8757 7.72107 13.9321 7.96074 14.8811 8.45368C16.0077 9.03893 16.9295 9.95342 17.5235 11.0754C18.1176 12.1975 18.3559 13.4738 18.2067 14.7346C18.0575 15.9954 17.5278 17.1809 16.6882 18.1332C15.8486 19.0856 14.7389 19.7596 13.5067 20.0657C12.2746 20.3717 10.9784 20.2953 9.79078 19.8465C8.60315 19.3978 7.58034 18.5979 6.8585 17.5535C6.13665 16.5091 5.75 15.2696 5.75 14C5.75 13.5858 5.41421 13.25 5 13.25C4.58579 13.25 4.25 13.5858 4.25 14C4.25 15.5743 4.72945 17.1113 5.62454 18.4064C6.51962 19.7015 7.7879 20.6932 9.26057 21.2497C10.7332 21.8062 12.3405 21.901 13.8683 21.5214C15.3962 21.1419 16.7723 20.3061 17.8134 19.1252C18.8545 17.9443 19.5112 16.4743 19.6963 14.9109C19.8813 13.3475 19.5858 11.7649 18.8492 10.3736C18.1125 8.98224 16.9696 7.84827 15.5725 7.12256C14.4729 6.55136 13.2569 6.2544 12.0274 6.25005L13.9881 4.56946Z" fill="#1F1F1F"/>
</svg>
