<svg width="402" height="45" viewBox="0 0 402 45" fill="none" xmlns="http://www.w3.org/2000/svg">
<path d="M199 0L199 45" stroke="white" style="stroke:white;stroke-opacity:1;" stroke-width="3"/>
<path d="M220 4L220 42" stroke="white" style="stroke:white;stroke-opacity:1;" stroke-width="3"/>
<path d="M180 0L180 38" stroke="white" style="stroke:white;stroke-opacity:1;" stroke-width="3"/>
<path d="M260 0L260 30" stroke="white" style="stroke:white;stroke-opacity:1;" stroke-width="3"/>
<path d="M281 0L281 30" stroke="white" style="stroke:white;stroke-opacity:1;" stroke-width="3"/>
<path d="M240 5L240 35" stroke="white" style="stroke:white;stroke-opacity:1;" stroke-width="3"/>
<path d="M321 0L321 30" stroke="white" style="stroke:white;stroke-opacity:1;" stroke-width="3"/>
<path d="M301 0L301 30" stroke="white" style="stroke:white;stroke-opacity:1;" stroke-width="3"/>
<path d="M341 0L341 30" stroke="white" style="stroke:white;stroke-opacity:1;" stroke-width="3"/>
<path d="M380 0L380 30" stroke="white" style="stroke:white;stroke-opacity:1;" stroke-width="3"/>
<path d="M400 0L400 30" stroke="white" style="stroke:white;stroke-opacity:1;" stroke-width="3"/>
<path d="M360 0L360 30" stroke="white" style="stroke:white;stroke-opacity:1;" stroke-width="3"/>
<path d="M0 0L-1.31134e-06 30" stroke="white" style="stroke:white;stroke-opacity:1;" stroke-width="3"/>
<path d="M20 0L20 30" stroke="white" style="stroke:white;stroke-opacity:1;" stroke-width="3"/>
<path d="M60 0L60 30" stroke="white" style="stroke:white;stroke-opacity:1;" stroke-width="3"/>
<path d="M40 0L40 30" stroke="white" style="stroke:white;stroke-opacity:1;" stroke-width="3"/>
<path d="M80 0L80 30" stroke="white" style="stroke:white;stroke-opacity:1;" stroke-width="3"/>
<path d="M120 0L120 30" stroke="white" style="stroke:white;stroke-opacity:1;" stroke-width="3"/>
<path d="M140 0L140 30" stroke="white" style="stroke:white;stroke-opacity:1;" stroke-width="3"/>
<path d="M100 0L100 30" stroke="white" style="stroke:white;stroke-opacity:1;" stroke-width="3"/>
<path d="M160 0L160 30" stroke="white" style="stroke:white;stroke-opacity:1;" stroke-width="3"/>
</svg>
