<svg width="24" height="24" viewBox="0 0 24 24" fill="none" xmlns="http://www.w3.org/2000/svg">
<path d="M16.9149 8.79849C17.6417 9.83641 18.0212 11.0778 17.9991 12.3447C17.977 13.6115 17.5544 14.8389 16.7918 15.8508M20.1915 6.50418C21.4028 8.23406 22.0353 10.303 21.9985 12.4145C21.9616 14.5259 21.2573 16.5715 19.9864 18.2581M2 10.7399V13.7399C2 14.5684 2.67157 15.2399 3.5 15.2399H5.53163C5.8284 15.2399 6.10985 15.3718 6.29985 15.5998L9.23178 19.1181C9.83054 19.8366 11 19.4132 11 18.4779V6.00199C11 5.0667 9.83054 4.64329 9.23178 5.36181L6.29985 8.88013C6.10985 9.10812 5.8284 9.23994 5.53163 9.23994H3.5C2.67157 9.23994 2 9.91152 2 10.7399Z" stroke="#1F1F1F" stroke-width="1.5" stroke-linecap="round"/>
</svg>
